 <svg  version="1.0" xmlns="http://www.w3.org/2000/svg"  width="450.000000pt" height="398.000000pt" viewBox="0 0 450.000000 398.000000"  preserveAspectRatio="xMidYMid meet">  <g transform="translate(0.000000,398.000000) scale(0.050000,-0.050000)" fill="#ffffff" stroke="none"> <path d="M4408 6939 c-140 -20 -285 -149 -338 -300 -62 -174 -190 -245 -270 -149 -13 16 -34 24 -45 17 -12 -7 -16 -4 -9 7 26 41 -188 176 -276 174 -155 -3 -476 -195 -592 -353 l-62 -85 13 -211 c15 -254 -7 -294 -149 -272 -44 7 -115 19 -159 25 -160 26 -306 -77 -434 -305 -185 -332 -184 -443 8 -667 110 -129 73 -230 -102 -279 -230 -65 -313 -212 -313 -559 0 -363 82 -506 322 -561 176 -41 206 -129 90 -270 -137 -167 -181 -291 -136 -386 95 -200 201 -394 229 -419 46 -42 44 -72 -12 -172 -25 -46 -52 -118 -59 -161 -9 -56 -46 -115 -139 -220 -345 -390 -408 -527 -292 -639 21 -20 46 -31 56 -25 9 6 21 2 24 -9 10 -28 189 65 277 143 39 34 57 55 42 47 -19 -11 -23 -9 -14 7 8 13 22 19 31 14 9 -6 51 17 94 51 65 52 88 60 152 49 91 -14 176 26 335 158 133 111 133 111 231 10 105 -108 362 -268 423 -263 28 2 43 -5 36 -16 -12 -20 -1 -23 90 -25 94 -1 122 5 110 25 -7 11 3 20 22 20 19 0 82 46 141 102 97 91 114 100 172 87 107 -23 125 -41 162 -164 78 -260 197 -333 538 -333 324 0 438 85 514 381 17 67 34 88 84 105 104 36 131 27 268 -97 181 -165 223 -170 446 -60 360 178 477 356 419 639 -29 143 -29 151 7 176 21 15 33 34 27 44 -11 18 -7 18 222 -31 254 -54 361 27 546 409 133 276 128 324 -59 561 -116 147 -100 216 60 256 266 68 341 193 341 570 0 366 -70 488 -324 566 -110 34 -216 163 -154 186 10 3 13 15 7 25 -7 11 -4 17 6 13 25 -7 111 98 162 199 71 140 57 225 -79 490 -73 144 -73 145 19 245 74 81 112 162 163 351 14 50 32 108 40 130 72 185 128 452 112 536 -22 119 -217 257 -277 197 -13 -13 -40 -23 -61 -23 -161 0 -699 -252 -803 -376 -67 -78 -67 -78 -188 -4 -54 33 -108 60 -122 60 -13 0 -37 14 -54 30 -17 17 -38 25 -49 19 -10 -6 -18 -3 -18 7 0 11 -38 29 -84 41 -105 26 -201 -12 -339 -134 -151 -134 -288 -98 -335 87 -62 246 -324 362 -694 309z m341 -199 c150 -24 147 -21 198 -241 l43 -184 130 -35 c72 -19 155 -45 186 -57 80 -32 72 -38 214 127 76 88 145 150 167 150 49 0 363 -166 451 -238 l68 -56 -36 -138 c-36 -136 -41 -142 -338 -450 -323 -334 -328 -338 -409 -281 -315 222 -881 306 -1263 186 -932 -291 -1404 -1331 -997 -2195 31 -67 57 -130 57 -140 0 -27 -786 -808 -813 -808 -30 0 -141 169 -236 357 l-74 147 153 153 c117 118 149 162 140 193 -6 22 -29 107 -51 188 -48 181 -20 157 -248 211 -106 25 -198 51 -204 57 -47 47 -37 543 12 602 13 16 108 49 212 72 l188 43 21 84 c11 45 36 130 54 187 l34 105 -154 158 -154 159 47 101 c186 401 228 438 437 374 223 -68 226 -67 374 91 l128 137 -53 186 c-29 103 -53 196 -53 207 0 52 422 308 510 308 25 0 89 -56 170 -150 142 -165 134 -159 214 -127 31 12 114 38 185 57 143 38 138 31 182 255 43 217 156 263 508 205z m2526 -25 c-5 -25 -53 -189 -105 -365 -53 -176 -107 -368 -122 -427 -39 -165 -50 -163 -138 15 -33 66 -70 119 -82 117 -13 -3 -442 -432 -955 -955 l-933 -950 12 -103 c27 -233 -188 -461 -396 -419 -69 14 -419 -318 -1607 -1520 -308 -313 -567 -568 -575 -568 -26 0 -14 30 32 80 75 82 258 285 352 391 111 126 421 466 467 513 96 98 -2 70 -106 -30 -81 -80 -578 -537 -1099 -1014 -324 -296 -329 -300 -345 -300 -25 0 20 73 70 114 25 20 184 185 354 366 170 182 467 489 660 684 193 194 354 365 359 379 9 27 -90 -28 -128 -70 -11 -13 -56 -54 -100 -91 -93 -78 -293 -254 -509 -447 -83 -74 -158 -135 -166 -135 -38 0 -2 46 170 211 102 99 518 504 925 900 407 397 777 755 822 795 63 56 85 93 93 153 26 192 220 340 408 312 l93 -14 957 956 c526 526 957 962 957 968 0 7 -54 38 -121 69 -150 72 -146 99 21 158 305 109 575 210 640 239 94 42 106 41 95 -12z m-429 -1190 c153 -210 245 -443 189 -480 -14 -9 -78 -72 -143 -140 l-119 -123 32 -116 c18 -64 40 -147 49 -186 17 -68 20 -70 207 -116 255 -63 247 -50 248 -373 1 -319 7 -309 -219 -360 -190 -43 -230 -61 -230 -107 0 -19 -19 -100 -43 -180 l-44 -146 144 -145 c163 -165 165 -171 80 -339 -181 -360 -196 -369 -454 -277 l-161 56 -141 -142 c-162 -163 -157 -143 -87 -376 l53 -178 -58 -47 c-114 -92 -397 -250 -448 -250 -38 1 -81 36 -171 139 -151 173 -132 167 -342 107 -221 -63 -207 -48 -249 -266 -43 -222 -28 -207 -215 -221 -395 -28 -449 -5 -485 210 -35 204 -45 224 -128 240 -40 7 -127 31 -194 52 -67 21 -124 39 -126 39 -3 0 -62 -67 -132 -150 -97 -113 -140 -150 -179 -150 -59 0 -350 160 -453 249 l-71 61 47 105 c51 112 653 745 709 745 16 0 64 -22 107 -49 781 -494 1889 -85 2238 825 168 439 113 1035 -128 1390 -66 96 -78 73 191 347 318 324 345 346 486 399 165 61 160 62 240 -47z m-2077 -225 c29 -97 47 -120 94 -120 49 0 332 -116 349 -143 14 -24 -68 -117 -103 -117 -13 0 -73 22 -132 49 -776 351 -1674 -485 -1389 -1295 34 -94 33 -96 -12 -153 -64 -82 -79 -70 -136 106 -48 147 -53 155 -127 177 -95 29 -116 78 -100 235 l12 118 84 21 c78 19 85 27 108 120 14 54 55 160 91 235 l66 137 -41 85 -41 85 98 100 c106 108 136 117 223 68 55 -31 61 -30 177 41 66 40 180 91 254 113 124 38 136 47 158 115 32 98 45 104 207 98 l140 -5 20 -70z m-69 -482 c-22 -16 -9 -18 54 -10 119 17 121 -12 12 -125 -84 -86 -109 -99 -204 -111 -208 -27 -390 -173 -512 -410 -78 -151 -218 -307 -267 -298 -56 11 -41 440 18 476 8 6 19 22 22 37 41 163 396 386 687 431 228 36 226 35 190 10z m980 -301 c32 -67 69 -166 83 -219 14 -56 38 -101 56 -106 17 -5 55 -14 84 -20 47 -10 53 -22 62 -126 13 -168 -3 -209 -97 -240 -73 -24 -83 -36 -105 -123 -14 -53 -56 -157 -93 -232 l-68 -136 43 -75 43 -76 -95 -112 c-105 -123 -121 -129 -211 -77 -60 35 -62 34 -186 -34 -69 -38 -188 -92 -265 -120 -128 -48 -141 -58 -153 -119 -18 -89 -43 -101 -202 -102 -144 0 -153 6 -186 117 -17 59 -34 72 -130 102 -249 78 -308 127 -235 197 l46 42 178 -61 c876 -302 1700 630 1287 1457 l-43 86 47 50 c66 70 74 65 140 -73z m-280 -522 c-1 -435 -190 -706 -555 -797 -58 -14 -95 -32 -83 -39 12 -8 -59 -13 -158 -11 -99 1 -176 9 -171 17 5 8 -5 15 -22 15 -104 0 72 190 195 210 289 48 474 246 543 582 26 122 39 147 115 213 133 116 136 112 136 -190z"/> <path d="M4440 6647 l-71 -9 -43 -180 c-52 -217 -60 -228 -192 -259 -57 -13 -147 -41 -200 -62 -157 -61 -179 -53 -308 103 -123 147 -150 159 -252 107 -196 -99 -295 -173 -282 -212 116 -366 118 -355 -85 -560 -199 -201 -168 -192 -393 -116 l-174 59 -72 -113 c-39 -61 -91 -151 -114 -199 l-42 -87 146 -147 c165 -167 159 -132 81 -432 -53 -205 -69 -221 -271 -268 -214 -50 -208 -42 -208 -284 0 -238 -12 -223 216 -278 213 -51 216 -55 319 -507 8 -38 -17 -74 -135 -193 -168 -169 -167 -160 -18 -390 l75 -117 354 349 c273 270 348 355 331 375 -83 101 -182 508 -182 750 1 1277 1324 2094 2444 1509 l133 -70 267 274 c260 268 362 422 319 482 -19 27 -160 116 -277 175 l-103 52 -142 -152 c-160 -172 -128 -166 -431 -76 -218 64 -235 82 -277 290 -18 91 -35 168 -38 171 -12 11 -308 23 -375 15z m160 -207 l-50 -16 52 -2 c45 -2 59 -18 96 -121 24 -66 61 -132 83 -147 21 -15 34 -32 29 -38 -50 -49 480 -249 603 -226 37 6 117 59 197 130 l135 119 57 -40 c48 -35 66 -119 18 -89 -8 5 -79 -62 -157 -148 -148 -163 -238 -210 -297 -151 -104 105 -623 196 -949 168 -272 -24 -593 -117 -564 -164 8 -12 4 -15 -9 -7 -58 35 -603 -360 -570 -414 6 -11 3 -14 -9 -7 -11 7 -32 -1 -45 -17 -14 -17 -21 -30 -16 -30 6 0 -25 -37 -67 -83 -42 -45 -72 -90 -66 -98 5 -9 2 -19 -7 -22 -62 -27 -231 -397 -286 -632 -61 -256 -47 -723 29 -955 73 -221 72 -226 -75 -367 -151 -144 -167 -151 -112 -44 51 101 51 221 -1 416 -74 274 -163 385 -359 449 -142 46 -140 122 5 164 202 59 295 190 377 540 l47 197 -62 113 c-37 66 -73 109 -90 105 -15 -3 -21 0 -13 8 8 8 -3 39 -25 70 -89 125 -31 162 170 110 170 -44 230 -18 431 186 234 238 273 321 240 513 -28 162 -23 180 50 198 41 11 74 -7 179 -96 167 -142 220 -152 435 -82 245 79 277 93 263 115 -7 12 -4 15 7 8 46 -28 222 226 257 372 2 8 5 20 7 25 1 6 27 9 57 8 l55 -2 -50 -16z"/> <path d="M6620 5475 c-107 -39 -283 -196 -546 -488 l-74 -82 88 -187 c668 -1426 -825 -2945 -2209 -2248 -184 93 -153 106 -463 -205 -401 -402 -404 -416 -126 -574 196 -112 159 -119 337 62 108 110 161 149 187 142 20 -6 129 -36 242 -67 233 -62 224 -53 273 -288 43 -202 40 -199 235 -200 235 0 247 8 289 202 46 214 61 229 287 290 105 29 207 57 227 63 28 8 76 -29 184 -145 167 -176 143 -174 374 -35 175 105 173 100 115 310 -56 203 -57 202 115 379 205 211 189 206 396 136 205 -70 193 -75 318 138 115 196 117 178 -52 340 -161 155 -156 128 -77 422 56 212 60 215 272 272 214 57 209 51 203 306 l-5 207 -188 47 c-228 56 -228 56 -283 268 -75 292 -81 262 79 426 169 175 165 135 40 354 -124 218 -104 205 -238 155z m80 -297 c0 -20 -45 -103 -100 -184 -115 -170 -119 -201 -59 -439 71 -278 182 -428 350 -475 127 -36 134 -140 12 -177 -372 -111 -509 -723 -227 -1015 65 -68 19 -137 -92 -140 -47 -1 -90 6 -96 15 -55 89 -336 -61 -506 -268 -166 -203 -185 -274 -134 -511 11 -48 -46 -124 -93 -124 -14 0 -75 41 -135 92 -196 164 -295 173 -629 55 -128 -45 -311 -251 -311 -350 0 -38 -63 -97 -103 -97 -36 0 -60 39 -117 194 -76 205 -528 402 -730 317 -87 -36 -234 -148 -221 -169 5 -8 -31 -17 -80 -19 -116 -6 -115 -6 66 181 196 202 292 257 346 199 93 -99 524 -193 827 -178 202 9 541 84 522 115 -5 8 2 15 15 15 81 -3 105 6 75 27 -25 18 -25 20 5 11 46 -15 98 6 82 32 -8 13 -3 15 12 6 67 -42 686 489 648 556 -7 13 -6 16 3 8 46 -41 281 414 353 685 94 353 54 856 -95 1192 -63 142 -69 122 97 295 193 201 315 260 315 151z"/> </g> </svg> 