 <svg  version="1.0" xmlns="http://www.w3.org/2000/svg"  width="300.000000pt" height="235.000000pt" viewBox="0 0 300.000000 235.000000"  preserveAspectRatio="xMidYMid meet">  <g transform="translate(0.000000,235.000000) scale(0.100000,-0.100000)" fill="#ffffff" stroke="none"> <path d="M1487 2119 c-40 -6 -87 -43 -87 -67 0 -8 -7 -29 -16 -47 -12 -25 -23 -34 -51 -38 -32 -6 -41 -2 -80 33 -50 47 -71 49 -138 14 -100 -53 -121 -84 -104 -158 10 -48 10 -56 -7 -79 -26 -36 -39 -39 -101 -27 -48 10 -56 9 -82 -9 -32 -23 -91 -131 -91 -167 0 -12 16 -41 35 -64 24 -29 35 -52 35 -74 0 -39 -19 -57 -77 -76 -65 -20 -77 -40 -81 -129 -4 -97 16 -134 80 -152 85 -24 103 -84 43 -150 -19 -22 -35 -50 -35 -63 0 -26 47 -121 80 -163 l20 -26 -25 -33 c-14 -18 -25 -36 -25 -40 0 -9 64 51 377 355 211 205 262 260 267 287 9 48 57 84 110 84 42 0 43 1 344 302 166 166 302 304 302 305 0 1 -19 12 -41 24 -23 11 -37 24 -33 28 13 11 274 104 279 99 2 -2 -14 -61 -36 -131 -21 -71 -39 -137 -39 -148 0 -31 -18 -22 -40 21 -11 22 -23 40 -26 40 -4 0 -139 -135 -302 -301 -292 -297 -296 -302 -293 -339 1 -21 -5 -52 -14 -70 -18 -35 -76 -65 -109 -56 -17 4 -81 -55 -348 -322 -181 -179 -328 -330 -328 -335 0 -8 63 38 112 82 l27 24 10 -24 c5 -13 22 -36 37 -51 37 -35 139 -81 161 -74 10 4 37 24 60 45 39 36 45 39 75 30 43 -12 58 -29 64 -70 6 -39 44 -79 77 -80 12 0 38 -2 57 -4 50 -5 109 10 125 32 8 10 17 35 20 56 6 31 13 41 48 57 22 11 42 20 44 20 1 0 25 -20 53 -45 28 -25 56 -45 63 -44 16 0 85 31 124 54 59 37 68 68 48 171 -3 14 5 31 22 48 28 28 34 29 128 10 26 -5 36 0 63 27 18 18 32 39 32 46 0 7 3 13 8 13 9 0 32 73 32 102 0 13 -16 40 -35 62 -25 27 -35 48 -35 71 0 38 19 56 79 75 61 20 76 47 76 140 -1 41 -6 85 -13 97 -13 23 -64 53 -92 53 -24 0 -46 30 -49 66 -2 23 6 40 33 70 21 23 36 50 36 65 0 29 -18 87 -34 108 -36 46 -77 81 -96 81 -25 0 -22 18 6 37 18 12 24 11 48 -8 14 -11 33 -18 41 -15 17 6 48 71 65 136 7 25 16 52 21 62 4 9 11 38 15 65 11 83 -21 91 -166 39 -106 -38 -133 -52 -147 -75 -10 -16 -10 -23 1 -34 18 -17 21 -37 12 -59 -12 -27 -23 -22 -42 17 -18 39 -50 65 -116 95 -61 28 -77 25 -127 -20 -38 -35 -49 -40 -75 -34 -39 8 -66 31 -66 57 0 29 -30 74 -59 88 -30 14 -79 17 -134 8z m132 -39 c11 -6 23 -31 30 -67 l13 -58 60 -18 61 -18 48 47 c56 55 64 55 156 -5 l61 -40 -14 -48 c-12 -39 -33 -67 -113 -147 l-99 -99 -31 22 c-81 58 -247 86 -360 61 -218 -48 -390 -262 -391 -486 0 -68 29 -191 55 -230 l17 -27 -131 -131 -132 -131 -21 25 c-11 14 -34 52 -50 84 l-30 60 47 45 48 45 -14 60 c-15 65 -19 68 -121 90 -23 5 -28 13 -34 52 -8 59 2 136 21 150 8 6 39 16 70 23 46 10 55 16 56 34 0 12 6 38 14 57 13 35 12 35 -37 86 l-50 51 27 54 c15 30 38 68 51 85 l23 31 62 -20 61 -19 45 44 44 44 -17 68 c-16 64 -16 67 2 81 38 30 122 75 139 75 9 0 36 -21 59 -46 l41 -46 60 18 c33 10 63 23 67 28 3 5 9 29 13 53 9 63 24 73 106 73 39 0 78 -4 88 -10z m629 -374 c10 -14 32 -50 48 -80 l29 -55 -49 -50 -48 -49 14 -58 c16 -62 23 -67 119 -88 23 -5 28 -13 34 -51 3 -25 3 -70 0 -100 -7 -49 -10 -56 -34 -61 -96 -21 -103 -26 -119 -88 l-14 -58 46 -47 c25 -26 46 -51 46 -56 0 -5 -19 -42 -42 -82 -46 -81 -51 -83 -127 -54 l-49 18 -47 -47 -47 -48 16 -48 c9 -26 16 -56 16 -66 0 -20 -56 -64 -120 -93 l-43 -19 -46 50 -46 50 -57 -15 c-31 -9 -59 -19 -63 -23 -4 -4 -12 -33 -19 -65 l-11 -58 -52 -9 c-29 -5 -72 -5 -99 0 l-48 9 -11 59 c-11 64 -14 66 -90 88 l-50 15 -47 -51 -46 -51 -64 33 c-35 19 -73 42 -85 52 -21 16 -22 21 -10 48 11 26 159 189 209 230 13 10 29 6 92 -24 65 -31 90 -37 164 -42 154 -8 262 31 373 135 116 110 165 233 156 392 -5 99 -21 154 -65 224 l-23 38 88 91 c82 84 144 127 185 128 9 0 25 -11 36 -24z m-795 -50 c-36 -48 -204 -104 -191 -64 7 19 149 88 181 88 28 0 28 0 10 -24z m285 -14 c41 -20 52 -31 50 -47 -4 -27 -38 -30 -64 -7 -11 11 -31 23 -45 27 -27 8 -69 43 -69 58 0 15 70 -2 128 -31z m-145 -12 c6 -16 15 -30 19 -30 4 0 32 -9 63 -21 56 -21 67 -37 39 -60 -13 -10 -21 -9 -47 7 -51 30 -205 27 -272 -5 -111 -55 -186 -171 -188 -290 0 -36 5 -83 12 -104 11 -34 11 -41 -5 -58 -21 -23 -28 -15 -45 44 -8 29 -17 41 -40 49 -27 9 -29 14 -29 58 0 43 3 49 26 57 43 14 92 147 71 193 -5 10 3 28 22 50 27 33 31 34 59 24 27 -10 38 -8 97 22 37 19 73 34 80 34 7 0 18 14 24 30 9 28 14 30 56 30 43 0 48 -3 58 -30z m34 -126 c24 -9 43 -21 43 -25 0 -5 -22 -31 -49 -59 -38 -39 -56 -50 -81 -50 -61 0 -116 -43 -151 -120 -9 -19 -39 -57 -66 -83 -48 -46 -51 -48 -68 -31 -14 14 -16 31 -13 93 4 90 23 134 83 195 88 88 201 118 302 80z m326 -79 c14 -27 28 -67 31 -88 6 -33 5 -38 -10 -35 -14 2 -40 42 -90 136 -8 15 26 56 37 45 4 -5 19 -30 32 -58z m-783 12 c0 -23 -45 -123 -60 -132 -16 -10 -34 10 -24 26 4 7 9 23 10 36 1 12 15 43 30 68 27 46 43 47 44 2z m701 -29 c7 -12 20 -45 30 -73 13 -36 24 -51 41 -55 21 -5 23 -12 23 -60 0 -48 -2 -55 -23 -60 -17 -4 -28 -19 -41 -55 -10 -28 -24 -61 -31 -74 -10 -19 -10 -28 0 -47 11 -20 10 -28 -14 -59 -28 -36 -53 -44 -73 -24 -9 9 -23 5 -55 -14 -24 -13 -62 -30 -85 -37 -34 -10 -43 -19 -48 -41 -6 -27 -10 -29 -57 -29 -46 0 -51 2 -61 30 -6 17 -16 30 -22 30 -5 0 -34 12 -64 25 -50 24 -53 27 -38 42 15 15 20 15 74 -2 32 -10 86 -18 119 -18 119 1 238 81 288 193 39 87 43 150 16 243 -19 63 -20 79 -10 92 16 19 17 19 31 -7z m-53 -87 c21 -70 15 -171 -14 -229 -51 -103 -161 -172 -272 -172 -51 0 -122 21 -122 37 0 4 23 31 52 60 40 41 59 53 83 53 67 0 135 72 135 142 0 30 9 46 51 92 28 31 57 56 63 56 7 0 18 -17 24 -39z m-701 -193 c13 -12 23 -27 23 -33 0 -7 9 -24 20 -37 19 -25 19 -25 -1 -47 -24 -26 -26 -26 -39 0 -10 17 -40 120 -40 134 0 11 15 4 37 -17z m867 -26 c-9 -51 -52 -134 -67 -129 -16 5 -21 47 -8 60 6 6 11 18 11 27 0 23 49 92 61 84 5 -3 7 -21 3 -42z m-603 -266 c30 -16 62 -39 72 -52 18 -24 18 -24 -7 -24 -26 0 -129 41 -153 62 -11 9 -11 14 4 30 9 10 19 17 23 16 4 -2 31 -16 61 -32z m420 18 c26 -16 -89 -79 -165 -90 l-41 -6 27 27 c31 33 125 82 151 78 9 -1 22 -5 28 -9z"/> <path d="M1466 2048 c-3 -7 -10 -37 -16 -65 l-12 -53 -66 -21 c-37 -11 -73 -23 -80 -26 -7 -2 -34 19 -61 48 l-49 53 -59 -36 c-32 -20 -58 -40 -58 -45 1 -4 7 -34 15 -66 l13 -58 -59 -60 -59 -59 -55 20 c-30 11 -58 20 -61 20 -3 0 -21 -27 -39 -61 l-32 -61 48 -49 47 -48 -16 -52 c-9 -28 -17 -59 -17 -69 0 -25 -17 -36 -80 -52 l-55 -14 0 -74 0 -74 55 -14 c30 -7 59 -17 63 -21 4 -5 14 -30 21 -57 7 -27 16 -59 20 -71 6 -18 -2 -33 -40 -73 -43 -46 -46 -52 -35 -78 6 -15 21 -40 34 -55 l22 -28 108 109 109 109 -15 30 c-43 82 -58 227 -36 335 37 179 191 348 364 400 118 35 265 23 378 -31 l62 -30 82 82 c83 82 114 137 93 162 -5 6 -33 24 -61 40 l-52 28 -46 -52 -46 -51 -72 23 c-40 13 -76 27 -80 31 -5 4 -15 33 -23 64 l-15 57 -68 3 c-48 2 -68 -1 -71 -10z m129 -78 c18 -49 26 -58 69 -78 26 -13 69 -26 95 -29 45 -5 51 -3 88 31 42 38 67 44 95 23 35 -27 26 -52 -50 -131 l-72 -76 -53 21 c-28 11 -58 25 -64 31 -7 6 -13 8 -13 6 0 -3 -24 0 -53 7 -62 14 -162 12 -226 -4 -203 -53 -369 -220 -417 -419 -18 -75 -17 -205 1 -264 8 -27 12 -48 10 -48 -2 0 2 -12 10 -26 7 -15 11 -33 8 -42 -6 -15 -148 -155 -164 -160 -5 -2 -14 8 -20 22 -11 23 -8 29 25 67 35 38 37 45 33 88 -13 114 -37 151 -109 173 -40 12 -53 34 -46 78 2 16 17 28 56 44 57 23 72 40 90 102 21 72 16 108 -23 154 -41 49 -39 43 -20 79 16 32 40 42 70 30 47 -18 81 -10 129 32 26 23 53 54 61 70 17 32 20 99 5 99 -16 0 -12 37 6 54 32 33 62 31 104 -8 47 -42 71 -45 157 -15 69 23 84 37 103 96 13 43 26 52 70 50 20 -2 28 -12 45 -57z"/> <path d="M2165 1681 c-22 -10 -73 -52 -113 -94 l-73 -76 26 -50 c37 -74 55 -154 55 -246 0 -375 -393 -636 -728 -484 -36 16 -70 28 -76 28 -17 -2 -183 -181 -190 -206 -6 -18 2 -26 47 -52 30 -17 60 -31 68 -31 7 0 31 21 53 46 l41 46 72 -20 c40 -12 77 -23 82 -26 5 -4 15 -32 22 -64 7 -31 18 -60 23 -64 13 -9 82 -10 112 -2 16 4 24 19 33 57 6 29 15 58 19 65 5 7 42 22 83 33 l74 20 43 -45 c24 -25 48 -46 55 -46 14 0 117 58 117 65 0 3 -8 33 -17 66 l-17 60 61 61 61 60 57 -21 c65 -25 62 -27 109 60 l25 45 -44 44 c-50 49 -52 56 -29 139 18 64 32 76 103 87 36 6 39 9 43 43 3 20 3 54 0 76 -4 40 -4 41 -65 55 l-61 15 -18 60 c-25 84 -23 96 22 140 22 21 40 45 40 52 0 17 -60 123 -68 123 -4 0 -25 -9 -47 -19z m63 -59 c17 -36 16 -40 -18 -78 -37 -43 -46 -76 -31 -124 6 -20 11 -46 11 -57 0 -26 47 -70 85 -79 37 -9 50 -22 57 -57 6 -29 -9 -56 -32 -61 -54 -11 -93 -43 -104 -86 -4 -14 -12 -41 -18 -62 -14 -47 -5 -79 32 -120 36 -39 38 -61 6 -93 -21 -21 -29 -23 -58 -15 -63 19 -84 13 -137 -38 -61 -59 -70 -80 -59 -146 7 -47 6 -53 -18 -74 -29 -25 -62 -29 -70 -8 -3 8 -23 26 -44 40 l-39 26 -63 -16 c-99 -25 -121 -42 -132 -99 -6 -32 -37 -65 -59 -65 -23 0 -56 39 -63 74 -8 45 -30 64 -95 82 -98 27 -104 26 -153 -18 -36 -31 -51 -38 -68 -32 -32 9 -48 24 -48 42 0 19 138 162 156 162 6 0 36 -11 65 -24 30 -13 89 -28 131 -34 123 -16 187 -6 307 49 67 31 98 53 155 112 116 118 167 239 165 392 0 98 -10 151 -40 233 l-24 63 76 74 c82 80 103 86 127 37z"/> <path d="M925 703 c-71 -64 -134 -123 -139 -132 -5 -9 -18 -25 -30 -37 -48 -48 -96 -104 -96 -112 0 -5 -10 -22 -22 -38 -39 -51 7 -8 121 111 58 61 151 156 206 213 55 56 102 105 104 107 2 3 0 5 -5 5 -5 -1 -67 -53 -139 -117z"/> <path d="M1084 759 c-10 -12 -91 -87 -179 -168 -210 -191 -276 -256 -245 -240 14 7 53 34 87 61 34 26 69 48 76 48 11 0 233 235 286 303 19 25 -2 21 -25 -4z"/> </g> </svg> 